2D_gait_states
version=1
nRows=18
nColumns=39
inDegrees=yes

# SIMM Motion File Header:
name 2D_gait_states
datacolumns 39
datarows 18
otherdata 1
range 0.44564629 0.45113692
endheader
time	/hamstrings_r/activation	/bifemsh_r/activation	/glut_max_r/activation	/iliopsoas_r/activation	/rect_fem_r/activation	/vasti_r/activation	/gastroc_r/activation	/soleus_r/activation	/tib_ant_r/activation	/hamstrings_l/activation	/bifemsh_l/activation	/glut_max_l/activation	/iliopsoas_l/activation	/rect_fem_l/activation	/vasti_l/activation	/gastroc_l/activation	/soleus_l/activation	/tib_ant_l/activation	/jointset/groundPelvis/pelvis_tilt/value	/jointset/groundPelvis/pelvis_tilt/speed	/jointset/groundPelvis/pelvis_tx/value	/jointset/groundPelvis/pelvis_tx/speed	/jointset/groundPelvis/pelvis_ty/value	/jointset/groundPelvis/pelvis_ty/speed	/jointset/hip_l/hip_flexion_l/value	/jointset/hip_l/hip_flexion_l/speed	/jointset/hip_r/hip_flexion_r/value	/jointset/hip_r/hip_flexion_r/speed	/jointset/knee_l/knee_angle_l/value	/jointset/knee_l/knee_angle_l/speed	/jointset/knee_r/knee_angle_r/value	/jointset/knee_r/knee_angle_r/speed	/jointset/ankle_l/ankle_angle_l/value	/jointset/ankle_l/ankle_angle_l/speed	/jointset/ankle_r/ankle_angle_r/value	/jointset/ankle_r/ankle_angle_r/speed	/jointset/lumbar/lumbar/value	/jointset/lumbar/lumbar/speed
      0.44564629	      0.00000005	      0.00000005	      0.00000005	      0.00000005	      0.00000005	      0.00000005	      0.00000005	      0.00000005	      0.00000005	      0.00000005	      0.00000005	      0.00000005	      0.00000005	      0.00000005	      0.00000005	      0.00000005	      0.00000005	      0.00000005	      0.00721426	      3.58634519	      2.37095178	     -0.04160146	      0.92786303	     -3.83753189	     -0.00000000	     -0.00000000	      0.00000000	      0.00000000	     -0.00000000	     -0.00000000	      0.00000000	      0.00000000	      0.00000000	     -0.00000000	     -0.00000000	     -0.00000000	      0.00000000	      0.00000000
      0.44621121	      0.00000005	      0.00000005	      0.00000005	      0.00000005	      0.00000005	      0.00000005	      0.00000005	      0.00000005	      0.00000005	      0.00000005	      0.00000005	      0.00000005	      0.00000005	      0.00000005	      0.00000005	      0.00000005	      0.00000005	      0.00000005	      0.00947089	      4.41764674	      2.37092438	     -0.05569102	      0.92574663	     -3.65027725	     -0.00000000	     -0.00000000	      0.00000000	      0.00000000	     -0.00000000	     -0.00000000	      0.00000000	      0.00000000	      0.00000000	     -0.00000000	     -0.00000000	     -0.00000000	      0.00000000	      0.00000000
      0.44647711	      0.00000005	      0.00000005	      0.00000005	      0.00000005	      0.00000005	      0.00000005	      0.00000005	      0.00000005	      0.00000005	      0.00000005	      0.00000005	      0.00000005	      0.00000005	      0.00000005	      0.00000005	      0.00000005	      0.00000005	      0.00000005	      0.01070273	      4.85128540	      2.37090863	     -0.06285766	      0.92478892	     -3.55237855	     -0.00000000	     -0.00000000	      0.00000000	      0.00000000	     -0.00000000	     -0.00000000	      0.00000000	      0.00000000	      0.00000000	     -0.00000000	     -0.00000000	     -0.00000000	      0.00000000	      0.00000000
      0.44680560	      0.00000004	      0.00000004	      0.00000004	      0.00000004	      0.00000004	      0.00000004	      0.00000004	      0.00000004	      0.00000004	      0.00000004	      0.00000004	      0.00000004	      0.00000004	      0.00000004	      0.00000004	      0.00000004	      0.00000004	      0.00000004	      0.01238751	      5.41033687	      2.37088647	     -0.07214808	      0.92364288	     -3.42385831	     -0.00000000	     -0.00000000	      0.00000000	      0.00000000	     -0.00000000	     -0.00000000	      0.00000000	      0.00000000	      0.00000000	     -0.00000000	     -0.00000000	     -0.00000000	      0.00000000	      0.00000000
      0.44721495	      0.00000004	      0.00000004	      0.00000004	      0.00000004	      0.00000004	      0.00000004	      0.00000004	      0.00000004	      0.00000004	      0.00000004	      0.00000004	      0.00000004	      0.00000004	      0.00000004	      0.00000004	      0.00000004	      0.00000004	      0.00000004	      0.01475138	      6.14756450	      2.37085447	     -0.08425270	      0.92227583	     -3.25359612	     -0.00000000	     -0.00000000	      0.00000000	     -0.00000000	     -0.00000000	     -0.00000000	      0.00000000	      0.00000000	      0.00000000	     -0.00000000	     -0.00000000	     -0.00000000	      0.00000000	      0.00000000
      0.44746579	      0.00000004	      0.00000004	      0.00000004	      0.00000004	      0.00000004	      0.00000004	      0.00000004	      0.00000004	      0.00000004	      0.00000004	      0.00000004	      0.00000004	      0.00000004	      0.00000004	      0.00000004	      0.00000004	      0.00000004	      0.00000004	      0.01635148	      6.61130716	      2.37083238	     -0.09192157	      0.92147327	     -3.14468072	     -0.00000000	     -0.00000000	      0.00000000	     -0.00000000	     -0.00000000	     -0.00000000	      0.00000000	      0.00000000	      0.00000000	     -0.00000000	     -0.00000000	     -0.00000000	      0.00000000	      0.00000000
      0.44771664	      0.00000004	      0.00000004	      0.00000004	      0.00000004	      0.00000004	      0.00000004	      0.00000004	      0.00000004	      0.00000004	      0.00000004	      0.00000004	      0.00000004	      0.00000004	      0.00000004	      0.00000004	      0.00000004	      0.00000004	      0.00000004	      0.01806951	      7.08787938	      2.37080835	     -0.09971332	      0.92069840	     -3.03297501	     -0.00000000	     -0.00000000	      0.00000000	      0.00000000	     -0.00000000	     -0.00000000	      0.00000000	      0.00000000	      0.00000000	     -0.00000000	     -0.00000000	     -0.00000000	      0.00000000	      0.00000000
      0.44811792	      0.00000004	      0.00000004	      0.00000004	      0.00000004	      0.00000004	      0.00000004	      0.00000004	      0.00000004	      0.00000004	      0.00000004	      0.00000004	      0.00000004	      0.00000004	      0.00000004	      0.00000004	      0.00000004	      0.00000004	      0.00000004	      0.02106886	      7.85985663	      2.37076580	     -0.11238249	      0.91951791	     -2.84996937	     -0.00000000	     -0.00000000	      0.00000000	     -0.00000000	     -0.00000000	      0.00000000	      0.00000000	      0.00000000	      0.00000000	     -0.00000000	     -0.00000000	     -0.00000000	      0.00000000	      0.00000000
      0.44834455	      0.00000004	      0.00000004	      0.00000004	      0.00000004	      0.00000004	      0.00000004	      0.00000004	      0.00000004	      0.00000004	      0.00000004	      0.00000004	      0.00000004	      0.00000004	      0.00000004	      0.00000004	      0.00000004	      0.00000004	      0.00000004	      0.02290056	      8.30483793	      2.37073952	     -0.11957673	      0.91888388	     -2.74503071	     -0.00000000	     -0.00000000	      0.00000000	     -0.00000000	     -0.00000000	      0.00000000	      0.00000000	      0.00000000	      0.00000000	     -0.00000000	     -0.00000000	     -0.00000000	      0.00000000	      0.00000000
      0.44857119	      0.00000004	      0.00000004	      0.00000004	      0.00000004	      0.00000004	      0.00000004	      0.00000004	      0.00000004	      0.00000004	      0.00000004	      0.00000004	      0.00000004	      0.00000004	      0.00000004	      0.00000004	      0.00000004	      0.00000004	      0.00000004	      0.02483286	      8.74714346	      2.37071160	     -0.12679235	      0.91827370	     -2.63949610	     -0.00000000	     -0.00000000	      0.00000000	     -0.00000000	     -0.00000000	      0.00000000	      0.00000000	      0.00000000	      0.00000000	     -0.00000000	     -0.00000000	     -0.00000000	      0.00000000	      0.00000000
      0.44893650	      0.00000004	      0.00000004	      0.00000004	      0.00000004	      0.00000004	      0.00000004	      0.00000004	      0.00000004	      0.00000004	      0.00000004	      0.00000004	      0.00000004	      0.00000004	      0.00000004	      0.00000004	      0.00000004	      0.00000004	      0.00000004	      0.02815852	      9.45981164	      2.37066316	     -0.13837198	      0.91734060	     -2.46914604	     -0.00000000	     -0.00000000	      0.00000000	     -0.00000000	     -0.00000000	      0.00000000	      0.00000000	      0.00000000	      0.00000000	     -0.00000000	     -0.00000000	     -0.00000000	      0.00000000	      0.00000000
      0.44927163	      0.00000004	      0.00000004	      0.00000004	      0.00000004	      0.00000004	      0.00000004	      0.00000004	      0.00000004	      0.00000004	      0.00000004	      0.00000004	      0.00000004	      0.00000004	      0.00000004	      0.00000004	      0.00000004	      0.00000004	      0.00000004	      0.03143745	     10.10561632	      2.37061503	     -0.14887996	      0.91653919	     -2.31379921	     -0.00000000	     -0.00000000	      0.00000000	     -0.00000000	     -0.00000000	      0.00000000	      0.00000000	      0.00000000	      0.00000000	     -0.00000000	     -0.00000000	     -0.00000000	      0.00000000	      0.00000000
      0.44960676	      0.00000004	      0.00000004	      0.00000004	      0.00000004	      0.00000004	      0.00000004	      0.00000004	      0.00000004	      0.00000004	      0.00000004	      0.00000004	      0.00000004	      0.00000004	      0.00000004	      0.00000004	      0.00000004	      0.00000004	      0.00000004	      0.03493119	     10.74550694	      2.37056340	     -0.15918632	      0.91578953	     -2.16049700	     -0.00000000	     -0.00000000	      0.00000000	     -0.00000000	     -0.00000000	      0.00000000	      0.00000000	      0.00000000	      0.00000000	     -0.00000000	     -0.00000000	     -0.00000000	      0.00000000	      0.00000000
      0.44985068	      0.00000004	      0.00000004	      0.00000004	      0.00000004	      0.00000004	      0.00000004	      0.00000004	      0.00000004	      0.00000004	      0.00000004	      0.00000004	      0.00000004	      0.00000004	      0.00000004	      0.00000004	      0.00000004	      0.00000004	      0.00000004	      0.03760755	     11.19666129	      2.37052367	     -0.16655875	      0.91527594	     -2.05079390	     -0.00000000	     -0.00000000	      0.00000000	     -0.00000000	     -0.00000000	      0.00000000	      0.00000000	      0.00000000	      0.00000000	     -0.00000000	     -0.00000000	     -0.00000000	      0.00000000	      0.00000000
      0.45009461	      0.00000004	      0.00000004	      0.00000004	      0.00000004	      0.00000004	      0.00000004	      0.00000004	      0.00000004	      0.00000004	      0.00000004	      0.00000004	      0.00000004	      0.00000004	      0.00000004	      0.00000004	      0.00000004	      0.00000004	      0.00000004	      0.04039334	     11.64313593	      2.37048216	     -0.17376669	      0.91478889	     -1.94304793	     -0.00000000	     -0.00000000	      0.00000000	     -0.00000000	     -0.00000000	      0.00000000	      0.00000000	      0.00000000	      0.00000000	     -0.00000000	     -0.00000000	     -0.00000000	      0.00000000	      0.00000000
      0.45046416	      0.00000003	      0.00000003	      0.00000003	      0.00000003	      0.00000003	      0.00000003	      0.00000003	      0.00000003	      0.00000003	      0.00000003	      0.00000003	      0.00000003	      0.00000003	      0.00000003	      0.00000003	      0.00000003	      0.00000003	      0.00000003	      0.04481799	     12.29765648	      2.37041597	     -0.18437336	      0.91410035	     -1.78422397	     -0.00000000	     -0.00000000	      0.00000000	     -0.00000000	     -0.00000000	      0.00000000	      0.00000000	      0.00000000	      0.00000000	     -0.00000000	     -0.00000000	     -0.00000000	      0.00000000	      0.00000000
      0.45080054	      0.00000003	      0.00000003	      0.00000003	      0.00000003	      0.00000003	      0.00000003	      0.00000003	      0.00000003	      0.00000003	      0.00000003	      0.00000003	      0.00000003	      0.00000003	      0.00000003	      0.00000003	      0.00000003	      0.00000003	      0.00000003	      0.04905194	     12.87366173	      2.37035238	     -0.19364240	      0.91352375	     -1.64492062	     -0.00000000	     -0.00000000	      0.00000000	     -0.00000000	     -0.00000000	      0.00000000	      0.00000000	      0.00000000	      0.00000000	     -0.00000000	     -0.00000000	     -0.00000000	      0.00000000	      0.00000000
      0.45113692	      0.00000003	      0.00000003	      0.00000003	      0.00000003	      0.00000003	      0.00000003	      0.00000003	      0.00000003	      0.00000003	      0.00000003	      0.00000003	      0.00000003	      0.00000003	      0.00000003	      0.00000003	      0.00000003	      0.00000003	      0.00000003	      0.05347547	     13.42125823	      2.37028573	     -0.20254134	      0.91299309	     -1.51119272	     -0.00000000	     -0.00000000	      0.00000000	     -0.00000000	     -0.00000000	      0.00000000	      0.00000000	      0.00000000	      0.00000000	     -0.00000000	     -0.00000000	     -0.00000000	      0.00000000	      0.00000000
